<svg width="191" height="39" viewBox="0 0 191 39" fill="none" xmlns="http://www.w3.org/2000/svg">
<path d="M16.043 26.8064C13.8667 25.998 11.6281 25.8737 9.57614 26.4333C8.14596 26.8064 6.77796 27.5526 5.53432 28.4853L4.66376 29.2315L4.41504 29.4802L4.97467 29.9777C5.03685 29.9777 5.03686 30.0399 5.09904 30.102C5.22341 30.2264 5.34778 30.2886 5.53432 30.4129L5.9074 30.6617L6.28049 30.3508C6.34268 30.2886 6.46704 30.1642 6.5914 30.102C7.71068 29.1693 8.95431 28.5475 10.2601 28.2366C11.939 27.8013 13.7423 27.8635 15.5456 28.5475C17.0379 29.1071 20.0849 29.7911 23.7536 28.2366L23.878 28.1744L24.0645 27.9879C24.0645 27.9257 24.1267 27.9257 24.1889 27.8635C24.4998 27.4904 24.8107 27.1173 25.0594 26.682L26.303 24.7544L24.3132 25.8737C21.3907 27.4904 18.7169 27.8013 16.043 26.8064Z" fill="#55B02E"/>
<path d="M7.52364 20.0906C9.20255 19.6553 11.0058 19.7175 12.8091 20.4015C14.7989 21.1477 19.8978 22.2048 25.6186 17.0437L26.5513 16.111L26.6135 16.0488L26.8622 15.8001L26.7378 15.4891C26.6756 15.2404 26.5513 14.9295 26.4269 14.6186L26.116 13.748L25.4942 14.3699C25.432 14.4942 25.3076 14.5564 25.1833 14.6808C22.4473 17.479 18.2189 20.3393 13.3687 18.5982C11.1924 17.7899 8.95382 17.6655 6.90182 18.2251C4.91201 18.7848 3.17091 19.8419 1.55418 21.3342V21.2721L0.621456 22.267C0.621456 22.3291 0.559286 22.3292 0.497104 22.3913L0.310547 22.5779L0.372732 22.8266C0.434914 23.1375 0.559274 23.4484 0.621456 23.7593L0.994551 24.7542L1.61637 23.9459C1.67855 23.8215 1.80291 23.7593 1.86509 23.635C3.17091 22.4535 4.97419 20.7746 7.52364 20.0906Z" fill="#55B02E"/>
<path d="M1.49238 18.9715C2.92256 17.4792 4.53928 16.5464 6.28037 16.049C7.95928 15.6137 9.76255 15.6759 11.5658 16.3599C17.1622 18.4119 22.0124 15.0541 24.1266 13.2508L24.9349 12.4424L25.2458 12.1937L24.9971 11.8206C24.8106 11.6341 24.6862 11.3854 24.4997 11.1366L24.1266 10.6392L23.6913 11.0744C23.6291 11.1366 23.5047 11.261 23.4426 11.3232C20.8309 13.8104 16.7891 16.3599 12.1876 14.6188C10.0113 13.8104 7.77273 13.6861 5.72074 14.2457C4.41492 14.6188 3.17128 15.2406 1.92764 16.049L0.621818 17.1061C0.497455 17.2304 0.435273 17.2926 0.310909 17.417L0.186557 17.5413V17.7279C0.124375 18.1632 0.124367 18.5984 0.0621856 18.9715L0 20.5261L1.0571 19.4068C1.18146 19.2824 1.30583 19.0959 1.49238 18.9715Z" fill="#55B02E"/>
<path d="M17.8466 31.0349L17.7222 31.408L17.8466 31.0349C17.66 30.9727 17.5357 30.9105 17.3491 30.8483C15.1728 30.04 12.9342 29.9156 10.8822 30.4753C10.4469 30.5996 10.0117 30.724 9.57639 30.9105L8.08401 31.5945L7.71094 31.7811L8.95457 32.2163C9.32766 32.3407 9.70075 32.4651 10.0738 32.5894L10.2604 32.6516L10.4469 32.5894C10.6335 32.5273 10.82 32.4029 11.0066 32.4029C11.1309 32.4029 11.2553 32.3407 11.3797 32.2785C12.872 31.9054 14.4887 31.9054 16.2298 32.4651C16.4164 32.5272 16.5408 32.5894 16.7273 32.6516L17.0382 32.776L17.2247 32.7138C17.66 32.5894 18.1575 32.4651 18.5306 32.2785L20.2717 31.6567L18.4684 31.2214C18.2818 31.1592 18.0331 31.0971 17.8466 31.0349Z" fill="#55B02E"/>
<path d="M27.3597 18.1631L26.427 19.0958C26.3027 19.2202 26.1783 19.3445 26.0539 19.4689C23.5045 21.894 19.4005 24.5056 14.799 22.7645C12.6227 21.9562 10.3841 21.8318 8.33213 22.3915C6.40449 22.9511 4.66338 23.946 3.10884 25.4384L2.30048 26.3089L2.05176 26.6198L2.30048 26.9929C2.48703 27.2416 2.6114 27.4282 2.73576 27.6769L3.10884 28.2365L3.54412 27.6769C3.6063 27.6147 3.73066 27.4904 3.79284 27.4282C5.2852 25.8114 6.90193 24.8165 8.76739 24.3191C10.4463 23.8838 12.2496 23.946 14.0528 24.63C15.6074 25.1896 17.2241 25.3762 18.8408 25.1896C21.7012 24.8787 24.5616 23.262 26.6758 21.4587C26.8001 21.3344 26.9245 21.2722 27.0488 21.1478L27.2354 20.9613V20.7747C27.2354 20.4016 27.2976 19.9664 27.2976 19.5933L27.3597 18.1631Z" fill="#55B02E"/>
<path d="M3.73045 12.4423L3.54391 12.0692L3.73045 12.4423C4.10354 12.2557 4.53883 12.1313 4.91192 12.007C6.59083 11.5717 8.3941 11.6339 10.1974 12.3179C11.3788 12.7532 12.5603 12.9397 13.8661 12.9397C16.4777 12.9397 19.0894 12.007 21.5145 10.2037L22.4472 9.45752L22.7581 9.20879L22.1985 8.77351C22.0119 8.58697 21.7632 8.40043 21.5145 8.27607L21.1414 8.02734L20.8305 8.27607C20.7061 8.33825 20.6439 8.46261 20.5195 8.52479C17.2239 11.0121 13.9283 11.6961 10.8192 10.5146C8.58065 9.70625 6.34209 9.51971 4.10355 10.2037C3.917 10.2659 3.73045 10.3281 3.48173 10.3902L3.35738 10.4524L3.17082 10.639C3.17082 10.7012 3.10865 10.7012 3.04647 10.7633C2.79774 11.1364 2.48682 11.4473 2.23809 11.8204L1.05664 13.6237L2.98428 12.6288C3.29519 12.6288 3.54391 12.5044 3.73045 12.4423Z" fill="#55B02E"/>
<path d="M8.82967 8.21393L9.01621 8.27611C9.82457 8.58702 11.0682 8.89793 12.6228 8.89793C14.2395 8.89793 15.794 8.52484 17.3486 7.90302L19.2762 6.97029L17.9704 6.53503C17.5973 6.41067 17.2242 6.2863 16.7889 6.22412H16.6024L16.4159 6.28629C16.2293 6.34847 16.0428 6.47285 15.8562 6.53503C13.9908 7.21903 12.1253 7.34339 10.322 6.84594C10.1355 6.78376 9.94894 6.72156 9.7624 6.65938L9.57586 6.5972L9.3893 6.65938C9.01621 6.78375 8.64313 6.90812 8.27004 7.09466L6.83984 7.71648L8.33222 8.15174C8.45659 8.08956 8.64312 8.15175 8.82967 8.21393Z" fill="#55B02E"/>
<path d="M46.3561 30.28C43.9855 30.28 42.1281 29.6267 40.7841 28.32C39.4401 27.0133 38.7681 25.2213 38.7681 22.944C38.7681 21.4693 39.0575 20.1813 39.6361 19.08C40.2148 17.9787 41.0175 17.12 42.0441 16.504C43.0895 15.888 44.3028 15.58 45.6841 15.58C47.0468 15.58 48.1855 15.8693 49.1001 16.448C50.0148 17.0267 50.7055 17.8387 51.1721 18.884C51.6575 19.9293 51.9001 21.152 51.9001 22.552V23.476H41.5961V21.628H49.4081L48.9321 22.02C48.9321 20.7133 48.6521 19.7147 48.0921 19.024C47.5508 18.3333 46.7575 17.988 45.7121 17.988C44.5548 17.988 43.6588 18.3987 43.0241 19.22C42.4081 20.0413 42.1001 21.1893 42.1001 22.664V23.028C42.1001 24.5587 42.4735 25.7067 43.2201 26.472C43.9855 27.2187 45.0588 27.592 46.4401 27.592C47.2428 27.592 47.9895 27.4893 48.6801 27.284C49.3895 27.06 50.0615 26.7053 50.6961 26.22L51.7321 28.572C51.0601 29.1133 50.2575 29.5333 49.3241 29.832C48.3908 30.1307 47.4015 30.28 46.3561 30.28ZM52.5979 30L59.1779 21.908V23.504L52.9619 15.86H57.1059L61.1659 21.096H59.9059L63.9659 15.86H68.0819L61.9219 23.504V21.908L68.4739 30H64.3019L59.9059 24.372H61.1659L56.7419 30H52.5979ZM70.1491 36.048V19.388C70.1491 18.8093 70.1305 18.2213 70.0931 17.624C70.0558 17.0267 69.9998 16.4387 69.9251 15.86H73.3131L73.6211 18.828H73.3131C73.5931 17.8387 74.1811 17.0547 75.0771 16.476C75.9918 15.8787 77.0465 15.58 78.2411 15.58C79.4918 15.58 80.5838 15.8787 81.5171 16.476C82.4505 17.0547 83.1785 17.8947 83.7011 18.996C84.2238 20.0787 84.4851 21.3853 84.4851 22.916C84.4851 24.4467 84.2238 25.7627 83.7011 26.864C83.1785 27.9653 82.4505 28.8147 81.5171 29.412C80.5838 29.9907 79.4918 30.28 78.2411 30.28C77.0651 30.28 76.0291 29.9907 75.1331 29.412C74.2371 28.8333 73.6398 28.0587 73.3411 27.088H73.6491V36.048H70.1491ZM77.2611 27.592C78.3811 27.592 79.2771 27.2093 79.9491 26.444C80.6211 25.66 80.9571 24.484 80.9571 22.916C80.9571 21.348 80.6211 20.1813 79.9491 19.416C79.2771 18.6507 78.3811 18.268 77.2611 18.268C76.1598 18.268 75.2731 18.6507 74.6011 19.416C73.9291 20.1813 73.5931 21.348 73.5931 22.916C73.5931 24.484 73.9291 25.66 74.6011 26.444C75.2731 27.2093 76.1598 27.592 77.2611 27.592ZM94.3444 30.28C91.9737 30.28 90.1164 29.6267 88.7724 28.32C87.4284 27.0133 86.7564 25.2213 86.7564 22.944C86.7564 21.4693 87.0457 20.1813 87.6244 19.08C88.2031 17.9787 89.0057 17.12 90.0324 16.504C91.0777 15.888 92.2911 15.58 93.6724 15.58C95.0351 15.58 96.1737 15.8693 97.0884 16.448C98.0031 17.0267 98.6937 17.8387 99.1604 18.884C99.6457 19.9293 99.8884 21.152 99.8884 22.552V23.476H89.5844V21.628H97.3964L96.9204 22.02C96.9204 20.7133 96.6404 19.7147 96.0804 19.024C95.5391 18.3333 94.7457 17.988 93.7004 17.988C92.5431 17.988 91.6471 18.3987 91.0124 19.22C90.3964 20.0413 90.0884 21.1893 90.0884 22.664V23.028C90.0884 24.5587 90.4617 25.7067 91.2084 26.472C91.9737 27.2187 93.0471 27.592 94.4284 27.592C95.2311 27.592 95.9777 27.4893 96.6684 27.284C97.3777 27.06 98.0497 26.7053 98.6844 26.22L99.7204 28.572C99.0484 29.1133 98.2457 29.5333 97.3124 29.832C96.3791 30.1307 95.3897 30.28 94.3444 30.28ZM102.852 30V19.388C102.852 18.8093 102.834 18.2213 102.796 17.624C102.759 17.0267 102.703 16.4387 102.628 15.86H106.016L106.296 18.66H105.96C106.408 17.6707 107.071 16.9147 107.948 16.392C108.826 15.8507 109.843 15.58 111 15.58C112.662 15.58 113.912 16.0467 114.752 16.98C115.592 17.9133 116.012 19.3693 116.012 21.348V30H112.512V21.516C112.512 20.3773 112.288 19.5653 111.84 19.08C111.411 18.576 110.758 18.324 109.88 18.324C108.798 18.324 107.939 18.66 107.304 19.332C106.67 20.004 106.352 20.9 106.352 22.02V30H102.852ZM124.763 30.28C123.55 30.28 122.43 30.14 121.403 29.86C120.395 29.5613 119.546 29.1507 118.855 28.628L119.835 26.276C120.545 26.7613 121.329 27.1347 122.187 27.396C123.046 27.6573 123.914 27.788 124.791 27.788C125.725 27.788 126.415 27.6293 126.863 27.312C127.33 26.9947 127.563 26.5653 127.563 26.024C127.563 25.5947 127.414 25.2587 127.115 25.016C126.835 24.7547 126.378 24.5587 125.743 24.428L122.943 23.896C121.749 23.6347 120.834 23.1867 120.199 22.552C119.583 21.9173 119.275 21.0867 119.275 20.06C119.275 19.1827 119.509 18.408 119.975 17.736C120.461 17.064 121.142 16.5413 122.019 16.168C122.915 15.776 123.961 15.58 125.155 15.58C126.201 15.58 127.181 15.72 128.095 16C129.029 16.28 129.813 16.7 130.447 17.26L129.439 19.528C128.861 19.0613 128.198 18.6973 127.451 18.436C126.705 18.1747 125.977 18.044 125.267 18.044C124.297 18.044 123.587 18.2213 123.139 18.576C122.691 18.912 122.467 19.3507 122.467 19.892C122.467 20.3027 122.598 20.648 122.859 20.928C123.139 21.1893 123.569 21.3853 124.147 21.516L126.947 22.048C128.198 22.2907 129.141 22.72 129.775 23.336C130.429 23.9333 130.755 24.7547 130.755 25.8C130.755 26.7333 130.503 27.536 129.999 28.208C129.495 28.88 128.795 29.3933 127.899 29.748C127.003 30.1027 125.958 30.28 124.763 30.28ZM140.583 30.28C138.212 30.28 136.355 29.6267 135.011 28.32C133.667 27.0133 132.995 25.2213 132.995 22.944C132.995 21.4693 133.284 20.1813 133.863 19.08C134.441 17.9787 135.244 17.12 136.271 16.504C137.316 15.888 138.529 15.58 139.911 15.58C141.273 15.58 142.412 15.8693 143.327 16.448C144.241 17.0267 144.932 17.8387 145.399 18.884C145.884 19.9293 146.127 21.152 146.127 22.552V23.476H135.823V21.628H143.635L143.159 22.02C143.159 20.7133 142.879 19.7147 142.319 19.024C141.777 18.3333 140.984 17.988 139.939 17.988C138.781 17.988 137.885 18.3987 137.251 19.22C136.635 20.0413 136.327 21.1893 136.327 22.664V23.028C136.327 24.5587 136.7 25.7067 137.447 26.472C138.212 27.2187 139.285 27.592 140.667 27.592C141.469 27.592 142.216 27.4893 142.907 27.284C143.616 27.06 144.288 26.7053 144.923 26.22L145.959 28.572C145.287 29.1133 144.484 29.5333 143.551 29.832C142.617 30.1307 141.628 30.28 140.583 30.28ZM154.131 30.28C152.917 30.28 151.797 30.14 150.771 29.86C149.763 29.5613 148.913 29.1507 148.223 28.628L149.203 26.276C149.912 26.7613 150.696 27.1347 151.555 27.396C152.413 27.6573 153.281 27.788 154.159 27.788C155.092 27.788 155.783 27.6293 156.231 27.312C156.697 26.9947 156.931 26.5653 156.931 26.024C156.931 25.5947 156.781 25.2587 156.483 25.016C156.203 24.7547 155.745 24.5587 155.111 24.428L152.311 23.896C151.116 23.6347 150.201 23.1867 149.567 22.552C148.951 21.9173 148.643 21.0867 148.643 20.06C148.643 19.1827 148.876 18.408 149.343 17.736C149.828 17.064 150.509 16.5413 151.387 16.168C152.283 15.776 153.328 15.58 154.523 15.58C155.568 15.58 156.548 15.72 157.463 16C158.396 16.28 159.18 16.7 159.815 17.26L158.807 19.528C158.228 19.0613 157.565 18.6973 156.819 18.436C156.072 18.1747 155.344 18.044 154.635 18.044C153.664 18.044 152.955 18.2213 152.507 18.576C152.059 18.912 151.835 19.3507 151.835 19.892C151.835 20.3027 151.965 20.648 152.227 20.928C152.507 21.1893 152.936 21.3853 153.515 21.516L156.315 22.048C157.565 22.2907 158.508 22.72 159.143 23.336C159.796 23.9333 160.123 24.7547 160.123 25.8C160.123 26.7333 159.871 27.536 159.367 28.208C158.863 28.88 158.163 29.3933 157.267 29.748C156.371 30.1027 155.325 30.28 154.131 30.28ZM162.589 30V26.108H166.509V30H162.589ZM175.304 30.28C174.072 30.28 172.99 29.9907 172.056 29.412C171.123 28.8147 170.395 27.9653 169.872 26.864C169.35 25.7627 169.088 24.4467 169.088 22.916C169.088 21.3853 169.35 20.0787 169.872 18.996C170.395 17.8947 171.123 17.0547 172.056 16.476C172.99 15.8787 174.072 15.58 175.304 15.58C176.499 15.58 177.544 15.8787 178.44 16.476C179.355 17.0547 179.962 17.8387 180.26 18.828H179.952L180.26 15.86H183.62C183.564 16.4387 183.508 17.0267 183.452 17.624C183.415 18.2213 183.396 18.8093 183.396 19.388V30H179.924L179.896 27.088H180.232C179.934 28.0587 179.327 28.8333 178.412 29.412C177.498 29.9907 176.462 30.28 175.304 30.28ZM176.284 27.592C177.386 27.592 178.272 27.2093 178.944 26.444C179.616 25.66 179.952 24.484 179.952 22.916C179.952 21.348 179.616 20.1813 178.944 19.416C178.272 18.6507 177.386 18.268 176.284 18.268C175.183 18.268 174.296 18.6507 173.624 19.416C172.952 20.1813 172.616 21.348 172.616 22.916C172.616 24.484 172.943 25.66 173.596 26.444C174.268 27.2093 175.164 27.592 176.284 27.592ZM187.208 30V15.86H190.708V30H187.208ZM187.012 13.2V9.784H190.904V13.2H187.012Z" fill="white"/>
</svg>
